<svg xmlns="http://www.w3.org/2000/svg" width="15.764" height="15.79" viewBox="0 0 15.764 15.79">
  <g id="call" transform="translate(0.479 -2.744)">
    <path id="Path_16" data-name="Path 16" d="M.046,6.147a1.091,1.091,0,0,1,.277-.591L2.539,3.34q.259-.222.387.074L4.718,6.774a.484.484,0,0,1-.093.573l-.812.812a.918.918,0,0,0-.259.573,2.817,2.817,0,0,0,.573,1.422,12.15,12.15,0,0,0,1.126,1.477l.573.591q.259.259.665.628a12.977,12.977,0,0,0,1.329,1,2.932,2.932,0,0,0,1.477.628.8.8,0,0,0,.591-.24l.96-.96A.407.407,0,0,1,11.4,13.2l3.231,1.9a.266.266,0,0,1,.148.185.273.273,0,0,1-.074.222l-2.216,2.216A1.09,1.09,0,0,1,11.9,18a4.45,4.45,0,0,1-2.049-.259,9.763,9.763,0,0,1-2.105-1,20.122,20.122,0,0,1-1.791-1.274q-.831-.665-1.329-1.108l-.48-.462q-.185-.184-.5-.517T2.594,12.111a22.045,22.045,0,0,1-1.311-1.847A9.508,9.508,0,0,1,.323,8.2,4.69,4.69,0,0,1,.046,6.147Z" transform="translate(0 0)" fill="none" stroke="#000" stroke-width="1"/>
  </g>
</svg>
