<svg width="395" height="400" viewBox="0 0 395 400" fill="none" xmlns="http://www.w3.org/2000/svg">
<g opacity="0.9" clip-path="url(#clip0)">
<path d="M197.433 0.568176V21.7793" stroke="white" stroke-width="2.3296" stroke-linecap="round" stroke-linejoin="round"/>
<path d="M197.433 373.088V394.299" stroke="white" stroke-width="2.3296" stroke-linecap="round" stroke-linejoin="round"/>
<g opacity="0.3">
<path d="M231.504 3.54894L230.123 11.3823" stroke="white" stroke-width="2.3296" stroke-linecap="round" stroke-linejoin="round"/>
<path d="M164.744 382.159L163.363 389.993" stroke="white" stroke-width="2.3296" stroke-linecap="round" stroke-linejoin="round"/>
</g>
<g opacity="0.3">
<path d="M264.539 12.4006L261.818 19.8751" stroke="white" stroke-width="2.3296" stroke-linecap="round" stroke-linejoin="round"/>
<path d="M133.049 373.666L130.328 381.141" stroke="white" stroke-width="2.3296" stroke-linecap="round" stroke-linejoin="round"/>
</g>
<g opacity="0.3">
<path d="M295.535 26.8543L291.558 33.7428" stroke="white" stroke-width="2.3296" stroke-linecap="round" stroke-linejoin="round"/>
<path d="M103.309 359.799L99.3321 366.687" stroke="white" stroke-width="2.3296" stroke-linecap="round" stroke-linejoin="round"/>
</g>
<g opacity="0.3">
<path d="M323.55 46.4709L318.437 52.5641" stroke="white" stroke-width="2.3296" stroke-linecap="round" stroke-linejoin="round"/>
<path d="M76.4298 340.977L71.3169 347.071" stroke="white" stroke-width="2.3296" stroke-linecap="round" stroke-linejoin="round"/>
</g>
<path d="M367.35 98.6696L360.461 102.647" stroke="#FA6400" stroke-width="2.3296" stroke-linecap="round" stroke-linejoin="round"/>
<path opacity="0.3" d="M34.4056 290.895L27.5171 294.872" stroke="white" stroke-width="2.3296" stroke-linecap="round" stroke-linejoin="round"/>
<g opacity="0.3">
<path d="M381.804 129.666L374.329 132.386" stroke="white" stroke-width="2.3296" stroke-linecap="round" stroke-linejoin="round"/>
<path d="M20.5378 261.156L13.0633 263.876" stroke="white" stroke-width="2.3296" stroke-linecap="round" stroke-linejoin="round"/>
</g>
<g opacity="0.3">
<path d="M390.655 162.701L382.822 164.082" stroke="white" stroke-width="2.3296" stroke-linecap="round" stroke-linejoin="round"/>
<path d="M12.0453 229.46L4.21202 230.841" stroke="white" stroke-width="2.3296" stroke-linecap="round" stroke-linejoin="round"/>
</g>
<g opacity="0.3">
<path d="M390.655 230.841L382.822 229.46" stroke="white" stroke-width="2.3296" stroke-linecap="round" stroke-linejoin="round"/>
<path d="M12.045 164.082L4.21168 162.701" stroke="white" stroke-width="2.3296" stroke-linecap="round" stroke-linejoin="round"/>
</g>
<g opacity="0.3">
<path d="M381.804 263.876L374.329 261.155" stroke="white" stroke-width="2.3296" stroke-linecap="round" stroke-linejoin="round"/>
<path d="M20.5379 132.386L13.0634 129.666" stroke="white" stroke-width="2.3296" stroke-linecap="round" stroke-linejoin="round"/>
</g>
<g opacity="0.3">
<path d="M367.35 294.872L360.461 290.895" stroke="white" stroke-width="2.3296" stroke-linecap="round" stroke-linejoin="round"/>
<path d="M34.4054 102.647L27.5169 98.6695" stroke="white" stroke-width="2.3296" stroke-linecap="round" stroke-linejoin="round"/>
</g>
<g opacity="0.3">
<path d="M323.55 347.071L318.437 340.977" stroke="white" stroke-width="2.3296" stroke-linecap="round" stroke-linejoin="round"/>
<path d="M76.4301 52.5641L71.3173 46.4708" stroke="white" stroke-width="2.3296" stroke-linecap="round" stroke-linejoin="round"/>
</g>
<g opacity="0.3">
<path d="M295.535 366.687L291.558 359.799" stroke="white" stroke-width="2.3296" stroke-linecap="round" stroke-linejoin="round"/>
<path d="M103.309 33.7429L99.3324 26.8544" stroke="white" stroke-width="2.3296" stroke-linecap="round" stroke-linejoin="round"/>
</g>
<g opacity="0.3">
<path d="M264.539 381.141L261.818 373.666" stroke="white" stroke-width="2.3296" stroke-linecap="round" stroke-linejoin="round"/>
<path d="M133.049 19.8751L130.328 12.4006" stroke="white" stroke-width="2.3296" stroke-linecap="round" stroke-linejoin="round"/>
</g>
<g opacity="0.3">
<path d="M231.504 389.993L230.123 382.159" stroke="white" stroke-width="2.3296" stroke-linecap="round" stroke-linejoin="round"/>
<path d="M164.744 11.3823L163.363 3.54893" stroke="white" stroke-width="2.3296" stroke-linecap="round" stroke-linejoin="round"/>
</g>
<path d="M347.734 70.6541L337.578 79.1755" stroke="white" stroke-width="2.3296" stroke-linecap="round" stroke-linejoin="round"/>
<path d="M57.289 314.366L47.1336 322.887" stroke="white" stroke-width="2.3296" stroke-linecap="round" stroke-linejoin="round"/>
<path d="M347.733 322.887L337.578 314.366" stroke="white" stroke-width="2.3296" stroke-linecap="round" stroke-linejoin="round"/>
<path d="M57.2891 79.1757L47.1337 70.6543" stroke="white" stroke-width="2.3296" stroke-linecap="round" stroke-linejoin="round"/>
<path d="M394.299 197.434H373.088" stroke="white" stroke-width="2.3296" stroke-linecap="round" stroke-linejoin="round"/>
<path d="M21.7793 197.434H0.568205" stroke="white" stroke-width="2.3296" stroke-linecap="round" stroke-linejoin="round"/>
<path d="M201.413 33.2832V44.4944H200.436L193.229 35.3974V44.4944H192.044V33.2832H193.021L200.244 42.3803V33.2832H201.413Z" fill="white"/>
<path d="M47.2323 191.041L43.4526 202.252H42.2033L38.92 192.69L35.6207 202.252H34.3875L30.6077 191.041H31.8249L35.0602 200.682L38.4075 191.041H39.5126L42.8119 200.73L46.0952 191.041H47.2323Z" fill="white"/>
<path d="M362.822 201.227V202.252H354.894V191.041H362.582V192.066H356.079V196.054H361.877V197.063H356.079V201.227H362.822Z" fill="white"/>
<path d="M197.783 360.106C196.95 360.106 196.149 359.972 195.38 359.705C194.622 359.438 194.035 359.086 193.618 358.648L194.083 357.735C194.489 358.141 195.028 358.472 195.701 358.728C196.373 358.974 197.067 359.097 197.783 359.097C198.786 359.097 199.539 358.915 200.041 358.552C200.543 358.178 200.794 357.698 200.794 357.111C200.794 356.662 200.655 356.304 200.377 356.037C200.11 355.771 199.779 355.568 199.384 355.429C198.989 355.279 198.439 355.119 197.735 354.948C196.891 354.735 196.218 354.532 195.717 354.34C195.215 354.137 194.782 353.833 194.419 353.427C194.067 353.021 193.891 352.471 193.891 351.777C193.891 351.211 194.04 350.699 194.339 350.24C194.638 349.77 195.097 349.396 195.717 349.119C196.336 348.841 197.105 348.702 198.023 348.702C198.664 348.702 199.288 348.793 199.897 348.974C200.516 349.145 201.05 349.385 201.498 349.695L201.098 350.64C200.628 350.33 200.126 350.101 199.592 349.951C199.059 349.791 198.535 349.711 198.023 349.711C197.041 349.711 196.298 349.903 195.797 350.288C195.305 350.661 195.06 351.147 195.06 351.745C195.06 352.194 195.193 352.557 195.46 352.834C195.738 353.101 196.08 353.309 196.485 353.459C196.902 353.598 197.457 353.753 198.151 353.923C198.973 354.126 199.635 354.329 200.137 354.532C200.649 354.724 201.082 355.023 201.434 355.429C201.787 355.824 201.963 356.363 201.963 357.046C201.963 357.612 201.808 358.13 201.498 358.6C201.199 359.059 200.735 359.428 200.105 359.705C199.475 359.972 198.701 360.106 197.783 360.106Z" fill="white"/>
</g>
<defs>
<clipPath id="clip0">
<rect width="395" height="400" fill="white"/>
</clipPath>
</defs>
</svg>
