<svg xmlns="http://www.w3.org/2000/svg" width="16" height="16" viewBox="0 0 16 16">
  <g id="instagram" transform="translate(-2 -2)">
    <path id="Path_3" data-name="Path 3" d="M6.8,2h6.4A4.8,4.8,0,0,1,18,6.8v6.4A4.8,4.8,0,0,1,13.2,18H6.8A4.8,4.8,0,0,1,2,13.2V6.8A4.8,4.8,0,0,1,6.8,2Zm0,1.6A3.2,3.2,0,0,0,3.6,6.8v6.4a3.2,3.2,0,0,0,3.2,3.2h6.4a3.2,3.2,0,0,0,3.2-3.2V6.8a3.2,3.2,0,0,0-3.2-3.2ZM10,14a4,4,0,1,1,4-4A4,4,0,0,1,10,14Zm0-1.6A2.4,2.4,0,1,0,7.6,10,2.4,2.4,0,0,0,10,12.4Zm4-5.6a.8.8,0,1,1,.8-.8A.8.8,0,0,1,14,6.8Z" fill-rule="evenodd"/>
  </g>
</svg>
