<svg xmlns="http://www.w3.org/2000/svg" width="202.827" height="54.165" viewBox="0 0 202.827 54.165">
  <g id="Group_2" data-name="Group 2" transform="translate(52.63 -124.8)">
    <path id="Path_9" data-name="Path 9" d="M107.081,132.083v.614c.921.46,1.228.767,1.228,1.841-.153,9.053-.153,17.646.153,26.7-.307,1.228-.614,2.3-.921,3.376h10.741c-.153-.307-.153-.767-.307-1.074V137.3c-.153-1.534,1.074-1.688,1.995-2.148,1.995-.767,3.683-1.381,5.524-2.148a25.524,25.524,0,0,1,5.217,3.529c7.365,8.286,3.222,20.254-1.534,26.238-1.381,1.841-1.534,1.995.153,2.148,3.222-.153,6.6-.153,9.974,0a24.478,24.478,0,0,1,1.534-3.529c-1.995.307-3.989.767-5.831,1.074-.767.153-1.534.307-1.534-.153,6.6-9.206,12.582-12.889,8.286-25.932a13.742,13.742,0,0,0-8.9-7.979,125.4,125.4,0,0,1-14.577,4.91,7.39,7.39,0,0,0-2.762-4.143,1.4,1.4,0,0,0-1.688-.153,65.662,65.662,0,0,1-6.751,3.069m-17.8-3.222a4.943,4.943,0,0,1,.921,3.529v24.7a29.567,29.567,0,0,0,.153,3.683A6.761,6.761,0,0,1,89.128,164v.767c4.143-.153,8.439-.153,12.582-.153-.307-.46-.614-.767-.767-1.074-.153-11.662,0-23.17.153-34.678ZM55.524,135.3c7.365,1.534,20.408,4.143,23.783,11.815,1.688,3.836.153,7.058-1.381,10.434-.767,1.381-2.148,1.688-3.989,1.381-6.6-1.381-21.635-5.217-22.863-13.349C50.768,142.056,52.609,137.453,55.524,135.3Zm-2.915-.614c-4.143,3.683-5.831,10.741-4.757,15.8,2.455,9.82,9.974,13.043,18.873,15.651,4.3-2.455,8.439-4.91,12.736-7.365,8.593-9.974,4.6-21.789-6.445-27.619-3.069-1.534-5.677-3.529-9.053-1.995C60.128,131.008,56.445,132.85,52.609,134.691ZM12.1,128.86c.46,7.058,1.995,22.556-.46,35.752H23.608c-1.381-5.524-1.228-8.9-1.381-13.656-.153-4.91-.153-5.37,3.222-5.217,2.148,1.995,8.132,12.122,10.587,16.572a13.5,13.5,0,0,0-.767,2.3H48.313a8.7,8.7,0,0,1-2.762-3.069c-3.529-7.672-7.365-12.122-11.508-19.334a35.8,35.8,0,0,0,13.043-13.2c-3.989-.153-8.132-.153-12.122-.153,3.376,5.831-7.672,12.582-11.815,13.656-.46-2.762-.614-10.127.307-13.656Z" transform="translate(0 -1.298)" fill="#4acbbf" fill-rule="evenodd"/>
    <path id="Path_10" data-name="Path 10" d="M220.641,130.308h.307l.921,1.688h1.074l-1.074-1.688c.46,0,.921-.307.921-1.074s-.614-1.074-1.534-1.074H219.72V132h.921Zm0-.614v-.921h.614c.307,0,.614,0,.614.46s-.153.46-.46.46Z" transform="translate(-75.046 -1.212)" fill="#268e91"/>
    <path id="Path_11" data-name="Path 11" d="M219.956,124.8a3.993,3.993,0,1,1-3.836,3.989,3.962,3.962,0,0,1,3.836-3.989m0,.767a3.241,3.241,0,0,1,3.222,3.222,3.146,3.146,0,0,1-3.222,3.222,3.114,3.114,0,0,1-3.069-3.222A3.213,3.213,0,0,1,219.956,125.567Z" transform="translate(-73.748 0)" fill="#268e91" fill-rule="evenodd"/>
    <path id="Path_12" data-name="Path 12" d="M141.912,201.057a4.106,4.106,0,0,0-.307-1.688,1.158,1.158,0,0,0-1.074-.614.923.923,0,0,0-.614.153l-.46.46a6.647,6.647,0,0,0-.153.767,1.946,1.946,0,0,0-.153.921Zm1.228.614H139.15a1.946,1.946,0,0,0,.153.921,1.172,1.172,0,0,0,.307.767,1.2,1.2,0,0,0,.614.614,1.15,1.15,0,0,0,.767.153,2.845,2.845,0,0,0,1.074-.307l.767-.767.153.153a2.21,2.21,0,0,1-.921,1.074,2.28,2.28,0,0,1-1.381.307,2.991,2.991,0,0,1-1.228-.153,4.068,4.068,0,0,1-.921-.767,7.479,7.479,0,0,1-.46-1.074,2.991,2.991,0,0,1-.153-1.228,3.378,3.378,0,0,1,.153-1.228c.153-.307.307-.767.46-1.074a3.21,3.21,0,0,1,.921-.614,2.218,2.218,0,0,1,1.074-.307,2.651,2.651,0,0,1,1.995.767,3,3,0,0,1,.614,2.148Zm-9.974-1.841a1.946,1.946,0,0,0-.153-.921c0-.153-.307-.307-.767-.307h-.153V198.3h1.074c.46,0,.614,0,.767.153l.46.46a2.118,2.118,0,0,1,.614-.46,2.181,2.181,0,0,1,.921-.307h.46a.564.564,0,0,0,.46.153c0,.153.153.153.153.307l.307.307-.614.46c0-.153-.153-.307-.46-.307-.153,0-.307-.153-.614-.153a1.163,1.163,0,0,0-.614.307c-.307,0-.46.153-.614.46v4.91h-1.228Zm-2.609,4.757-.46-.614a2.118,2.118,0,0,1-.614.46,2.991,2.991,0,0,1-1.228.153h-.614c-.307-.153-.46-.153-.614-.307a2.119,2.119,0,0,1-.46-.614,1.3,1.3,0,0,1-.307-.921,2.181,2.181,0,0,1,.307-.921,3.355,3.355,0,0,1,.767-.46,2.218,2.218,0,0,1,1.074-.307,3.378,3.378,0,0,1,1.228-.153h.46a2.275,2.275,0,0,0-.153-1.074,1.172,1.172,0,0,0-.307-.767c0-.153-.153-.153-.46-.307h-.46c-.46,0-.767,0-.921.153a1.409,1.409,0,0,0-.614.921h-.46v-.614a.8.8,0,0,1,.307-.614.536.536,0,0,1,.307-.153.564.564,0,0,1,.46-.153c.153,0,.307-.153.614-.153h.614a1.383,1.383,0,0,1,.767.153,1.172,1.172,0,0,1,.767.307c.153.307.46.614.46.921a3.064,3.064,0,0,1,.307,1.381v3.683Zm-.46-3.069h-.46a2.524,2.524,0,0,0-1.534.307,1.326,1.326,0,0,0-.46.921v.614c.153.153.153.307.307.46.153,0,.307.153.46.153h.46a1.15,1.15,0,0,0,.767-.153,2.118,2.118,0,0,0,.46-.614Zm-6.9,1.074,1.688-4.3h.614l-2.455,6.291h-.307l-1.688-3.989-1.688,3.989H119.2l-1.995-4.757c-.153-.46-.307-.921-.614-1.074a1.172,1.172,0,0,0-.767-.307v-.307h.46c.307,0,.46,0,.614.153.307,0,.46.153.614.153a2.118,2.118,0,0,1,.46.614c.307.153.307.46.46.767l1.228,2.762,1.074-2.762a3.293,3.293,0,0,0-.614-1.074,1.172,1.172,0,0,0-.767-.307v-.307h.46c.307,0,.46,0,.614.153.307,0,.46.153.614.153a1.2,1.2,0,0,1,.614.614,3.354,3.354,0,0,1,.46.767Zm-8.286,1.995h-.614l-.46-.614c-.153,0-.153.153-.307.153l-.307.307c-.153,0-.307.153-.614.153h-.614a2.275,2.275,0,0,1-1.074-.153c-.307-.153-.46-.46-.767-.767a7.481,7.481,0,0,1-.46-1.074v-2.455a3.846,3.846,0,0,1,.614-1.074,1.532,1.532,0,0,1,.767-.614,2.218,2.218,0,0,1,1.074-.307,1.946,1.946,0,0,1,.921.153c.307.153.46.153.767.307v-1.228a5.425,5.425,0,0,0-.153-.921.844.844,0,0,0-.767-.46H112.6v-.153h1.688c.153,0,.307.153.46.307a.672.672,0,0,1,.153.46v7.979Zm-1.074-5.524a.8.8,0,0,1-.614-.307h-.767a1.383,1.383,0,0,0-.767.153,2.119,2.119,0,0,0-.46.614c-.153.153-.153.46-.307.767v2.148c.153.307.153.614.307.921.153.153.307.46.46.614a6.647,6.647,0,0,0,.767.153.564.564,0,0,0,.46-.153c.153,0,.307,0,.307-.153a.536.536,0,0,0,.307-.153c.153-.153.153-.307.307-.307Zm-8.9.767a1.946,1.946,0,0,0-.153-.921.9.9,0,0,0-.767-.307h-.153V198.3h1.074a1.15,1.15,0,0,1,.767.153c.153.153.307.307.307.46h.153a2.119,2.119,0,0,1,.614-.46,1.3,1.3,0,0,1,.921-.307h.46a.475.475,0,0,0,.307.153l.307.307c0,.153.153.153.153.307l-.46.46c-.153-.153-.307-.307-.46-.307s-.46-.153-.614-.153c-.307,0-.46.153-.767.307q-.23,0-.46.46v4.91h-1.228Zm-2.608,4.757-.46-.614a3.354,3.354,0,0,1-.767.46,2.638,2.638,0,0,1-1.228.153h-.46c-.307-.153-.46-.153-.767-.307a2.118,2.118,0,0,1-.46-.614c-.153-.153-.153-.46-.153-.921a2.181,2.181,0,0,1,.307-.921,3.355,3.355,0,0,1,.767-.46,2.218,2.218,0,0,1,1.074-.307,2.991,2.991,0,0,1,1.228-.153h.46c0-.46-.153-.767-.153-1.074-.153-.307-.153-.614-.307-.767s-.307-.153-.46-.307h-.46a2.275,2.275,0,0,0-1.074.153,2.5,2.5,0,0,0-.46.921h-.614v-.614c.153-.307.153-.46.307-.614.153,0,.307-.153.46-.153,0-.153.307-.153.46-.153s.307-.153.46-.153h.614a1.946,1.946,0,0,1,.921.153c.307,0,.46.153.767.307l.46.921a3.406,3.406,0,0,1,.153,1.381v3.683Zm-.46-3.069h-.46a2.3,2.3,0,0,0-1.534.307,1.11,1.11,0,0,0-.614.921c0,.307,0,.46.153.614,0,.153.153.307.307.46a.536.536,0,0,0,.307.153h.46a1.15,1.15,0,0,0,.767-.153,1.2,1.2,0,0,0,.614-.614ZM96.033,202.9a1.3,1.3,0,0,0,.307.921c0,.307.307.46.614.46h.307v.307H96.033c-.153,0-.307-.153-.46-.153s-.307-.153-.46-.153c0-.153-.153-.307-.153-.614V200.29H90.969v4.3H89.742v-7.212c0-.46,0-.767-.153-.921a.709.709,0,0,0-.767-.46h-.307v-.153h1.841a.33.33,0,0,1,.307.307c.153,0,.153.153.307.46v3.222h3.989v-3.99h1.074Zm-11.968,1.688H82.837v-7.212c0-.46,0-.767-.153-.921a.709.709,0,0,0-.767-.46h-.307v-.153h1.841a.33.33,0,0,1,.307.307c.153,0,.153.153.307.46v7.979Zm-3.683,0-.46-.614h-.153a2.118,2.118,0,0,1-.614.46,2.991,2.991,0,0,1-1.228.153h-.614c-.153-.153-.46-.153-.614-.307a2.119,2.119,0,0,1-.46-.614c-.153-.153-.153-.46-.153-.921a1.946,1.946,0,0,1,.153-.921c.307-.153.46-.307.767-.46a2.845,2.845,0,0,1,1.074-.307,4.248,4.248,0,0,1,1.381-.153h.307a2.275,2.275,0,0,0-.153-1.074,6.646,6.646,0,0,0-.153-.767c-.153-.153-.307-.153-.46-.307h-.614a1.946,1.946,0,0,0-.921.153.928.928,0,0,0-.46.921h-.614v-.614a.8.8,0,0,1,.307-.614.536.536,0,0,1,.307-.153.564.564,0,0,1,.46-.153c.153,0,.46-.153.614-.153h.614a1.15,1.15,0,0,1,.767.153,1.172,1.172,0,0,1,.767.307,3.21,3.21,0,0,1,.614.921c0,.307.153.767.153,1.381v3.683Zm-.614-3.069h-.307a2.786,2.786,0,0,0-1.688.307,1.326,1.326,0,0,0-.46.921v.614c.153.153.307.307.307.46.153,0,.307.153.46.153h.46a1.15,1.15,0,0,0,.767-.153,2.118,2.118,0,0,0,.46-.614Zm-8.439-1.688a1.946,1.946,0,0,0-.153-.921.9.9,0,0,0-.767-.307h-.153V198.3h1.074a1.15,1.15,0,0,1,.767.153c.153.153.307.307.307.46h.153a2.119,2.119,0,0,1,.614-.46,1.3,1.3,0,0,1,.921-.307h.46a.475.475,0,0,0,.307.153l.307.307c0,.153.153.153.153.307l-.46.46c-.153-.153-.307-.307-.46-.307s-.46-.153-.614-.153c-.307,0-.46.153-.767.307q-.23,0-.46.46v4.91H71.329Zm-1.995,4.757H68.72l-.46-.614h-.153a2.118,2.118,0,0,1-.614.46,2.275,2.275,0,0,1-1.074.153h-.767a3.354,3.354,0,0,1-.767-.46c-.307-.153-.46-.307-.46-.614a2.891,2.891,0,0,1-.307-1.228v-2.455a1.946,1.946,0,0,0-.153-.921.9.9,0,0,0-.767-.307h-.153V198.3h1.688c.153.153.307.153.307.307.153.153.153.307.307.46v3.222a1.15,1.15,0,0,0,.153.767.8.8,0,0,0,.307.614c.153.153.307.153.46.307h.614a.923.923,0,0,0,.614-.153,2.118,2.118,0,0,0,.614-.46V198.3h1.228Zm-9.36-5.831h-.921v-.46h.921v-1.228l.614-.767h.46V198.3h1.688v.46H61.048V202.9c0,.767.307,1.228,1.074,1.228a17742.98,17742.98,0,0,0,.921-.307l.153.307c-.153,0-.153.153-.307.153a.536.536,0,0,1-.307.153.564.564,0,0,1-.46.153h-.614a2.218,2.218,0,0,1-1.074-.307,1.876,1.876,0,0,1-.46-1.381Zm-4.143-.614a2.991,2.991,0,0,1,1.228.153,1.172,1.172,0,0,1,.767.307c0,.153.153.153.153.307s0,.153.153.307v1.074h-.307a1.742,1.742,0,0,0-.46-1.228,3.611,3.611,0,0,0-1.228-.307,1.946,1.946,0,0,0-.921.153c-.153.153-.46.307-.614.614-.153.153-.153.46-.307.767,0,.307-.153.767-.153,1.074,0,.46.153.767.153,1.074.153.307.153.614.307.921l.614.614c.307,0,.614.153.921.153a2.218,2.218,0,0,0,1.074-.307,1.849,1.849,0,0,0,.767-.767l.307.153a1.835,1.835,0,0,1-1.074,1.074c-.307.307-.767.307-1.381.307a2.991,2.991,0,0,1-1.228-.153,1.572,1.572,0,0,1-.921-.767,2.473,2.473,0,0,1-.614-1.074c0-.307-.153-.767-.153-1.228s.153-.767.153-1.228a3.846,3.846,0,0,1,.614-1.074,1.409,1.409,0,0,1,.921-.614A2.891,2.891,0,0,1,55.831,198.142Zm-5.37,2.915c0-.767,0-1.381-.307-1.688a1.027,1.027,0,0,0-1.074-.614.564.564,0,0,0-.46.153l-.46.46c-.153.153-.153.46-.307.767,0,.307-.153.614-.153.921Zm1.228.614H47.7c0,.307.153.614.153.921.153.307.153.614.307.767.153.307.46.46.614.614a1.383,1.383,0,0,0,.767.153,2.218,2.218,0,0,0,1.074-.307,1.849,1.849,0,0,0,.767-.767l.307.153a1.835,1.835,0,0,1-1.074,1.074,2.063,2.063,0,0,1-1.381.307,3.379,3.379,0,0,1-1.228-.153,1.849,1.849,0,0,1-.767-.767,2.473,2.473,0,0,1-.614-1.074c0-.307-.153-.767-.153-1.228s.153-.767.153-1.228a3.846,3.846,0,0,1,.614-1.074,1.532,1.532,0,0,1,.767-.614,2.845,2.845,0,0,1,1.074-.307,2.421,2.421,0,0,1,1.995.767,3.035,3.035,0,0,1,.767,2.148Zm-9.053-2.915h-.921v-.46h.921v-1.228l.614-.767h.614V198.3H45.4v.46H43.863V202.9c0,.767.307,1.228.921,1.228a.923.923,0,0,0,.614-.153c.153,0,.153,0,.307-.153l.153.307-.153.153c-.153,0-.307.153-.46.153a.564.564,0,0,1-.46.153H44.17a2.218,2.218,0,0,1-1.074-.307,1.876,1.876,0,0,1-.46-1.381Zm-2.148-1.841c0,.153-.153.307-.153.46a.564.564,0,0,1-.46.153.8.8,0,0,1-.614-.307c-.153-.153-.153-.307-.153-.614,0-.153,0-.307.153-.307.153-.153.307-.307.46-.307s.307.153.46.307A1.163,1.163,0,0,1,40.487,196.914Zm0,7.672H39.413v-4.757a2.181,2.181,0,0,0-.307-.921c0-.153-.307-.307-.614-.307h-.307V198.3h1.688c.153.153.307.153.46.307,0,.153.153.307.153.46v5.524Zm-7.212-5.831c.307-.153.46-.307.767-.307a2.218,2.218,0,0,1,1.074-.307,1.668,1.668,0,0,1,.767.153c.307,0,.46.153.767.307a3.354,3.354,0,0,1,.46.767,2.991,2.991,0,0,1,.153,1.228v3.989H36.191V200.6c0-.307-.153-.614-.153-.921-.153-.153-.307-.307-.307-.46-.153-.153-.307-.307-.46-.307a1.16,1.16,0,0,0-.614-.153c-.307,0-.46.153-.767.153l-.614.614v5.064H32.2v-7.212a5.425,5.425,0,0,0-.153-.921.844.844,0,0,0-.767-.46h-.307v-.153h1.688c.153,0,.307.153.46.307a.672.672,0,0,1,.153.46v2.148Zm-4.91-.614a2.275,2.275,0,0,1,1.074.153.9.9,0,0,1,.767.307c.153.153.153.153.153.307.153.153.153.153.153.307v1.074H30.36a3.084,3.084,0,0,0-.614-1.228,2.89,2.89,0,0,0-1.228-.307,1.15,1.15,0,0,0-.767.153,1.2,1.2,0,0,0-.614.614,1.172,1.172,0,0,0-.307.767,2.611,2.611,0,0,0-.153,1.074,2.275,2.275,0,0,0,.153,1.074,2.181,2.181,0,0,0,.307.921c.153.153.307.46.614.614a6.646,6.646,0,0,0,.767.153,2.891,2.891,0,0,0,1.228-.307c.307-.153.46-.46.767-.767l.307.153a2.366,2.366,0,0,1-1.074,1.074,2.28,2.28,0,0,1-1.381.307,4.248,4.248,0,0,1-1.381-.153,4.068,4.068,0,0,1-.921-.767,7.481,7.481,0,0,1-.46-1.074,2.991,2.991,0,0,1-.153-1.228,3.379,3.379,0,0,1,.153-1.228c.153-.307.307-.767.46-1.074a3.21,3.21,0,0,1,.921-.614A4.48,4.48,0,0,1,28.365,198.142Zm-7.672,1.688a1.946,1.946,0,0,0-.153-.921c0-.153-.307-.307-.767-.307V198.3h.921c.46,0,.614,0,.767.153l.46.46a2.119,2.119,0,0,1,.614-.46,2.181,2.181,0,0,1,.921-.307h.46a.564.564,0,0,0,.46.153c0,.153.153.153.153.307l.307.307-.614.46c0-.153-.153-.307-.46-.307-.153,0-.307-.153-.614-.153a1.163,1.163,0,0,0-.614.307c-.307,0-.46.153-.614.46v4.91H20.693Zm-7.212,1.688H16.7l-1.534-3.836Zm6.6,3.069H19.005c-.153-.153-.46-.153-.614-.307s-.46-.307-.614-.46l-.46-.921-.307-.921H13.328l-1.074,2.609H11.64l3.683-8.746h.307l2.915,7.058a1.163,1.163,0,0,1,.307.614c.153.153.307.307.307.46.153,0,.307.153.46.153s.307.153.46.153Z" transform="translate(0 -25.621)" fill="#268e91"/>
    <path id="Path_18" data-name="Path 18" d="M59.941,5.04V59.2c-11.161-.656-13.3-7.058-22.979-19.532-4.268-5.252-8.863-8.043-13.952-7.222L41.558,13.9c7.55-6.894,9.684-7.879,18.383-8.864m-53.508,0H33.187c6.894.493,6.73,5.581,2.134,9.684C28.1,21.782,21.37,28.84,13.983,35.9,36.962,39.673,28.263,52.8,38.6,59.2H6.433Z" transform="translate(-59.063 119.76)" fill="#268e91" fill-rule="evenodd"/>
  </g>
</svg>
