<svg xmlns="http://www.w3.org/2000/svg" width="16" height="16" viewBox="0 0 16 16">
  <g id="whatsapp" transform="translate(0 -2)">
    <path id="Path_6249" data-name="Path 6249" d="M13.6,4.325A7.931,7.931,0,0,0,1.125,13.893L0,18l4.2-1.1a7.9,7.9,0,0,0,3.79.964H8a8,8,0,0,0,8-7.929A7.959,7.959,0,0,0,13.6,4.325ZM8,16.525a6.577,6.577,0,0,1-3.357-.918L4.4,15.465l-2.493.653.665-2.432-.157-.25a6.6,6.6,0,1,1,12.246-3.5A6.663,6.663,0,0,1,8,16.525Zm3.614-4.936c-.2-.1-1.171-.578-1.354-.643s-.314-.1-.446.1-.511.643-.629.779-.232.15-.429.05a5.388,5.388,0,0,1-2.7-2.357c-.2-.35.2-.325.582-1.082a.369.369,0,0,0-.018-.346c-.05-.1-.447-1.075-.611-1.471s-.325-.332-.446-.339-.247-.007-.379-.007a.736.736,0,0,0-.529.246,2.226,2.226,0,0,0-.693,1.654,3.878,3.878,0,0,0,.807,2.05,8.849,8.849,0,0,0,3.386,2.993,3.878,3.878,0,0,0,2.378.5,2.03,2.03,0,0,0,1.336-.943,1.652,1.652,0,0,0,.114-.943c-.046-.089-.179-.139-.375-.236Z" fill="#111"/>
  </g>
</svg>
